<svg width="96" height="64" viewBox="0 0 96 64" fill="none" xmlns="http://www.w3.org/2000/svg">
<g clip-path="url(#clip0_25_341)">
<path d="M16.4574 43.0564L9.06299 63.49L10.5591 63.4866L17.6743 43.8196C17.2572 43.5594 16.8263 43.3755 16.4574 43.0564ZM23.0142 24.9089L18.8809 36.3955C19.1739 36.8638 19.5634 37.1587 19.9668 37.5334L24.6482 24.5273C24.0759 24.6106 23.5347 24.7389 23.0142 24.9089ZM32.0426 0.00346921L25.441 18.248C25.934 18.1891 26.4408 18.1474 26.9785 18.1301L33.5353 0L32.0426 0.00346921Z" fill="black"/>
<path d="M42.4948 56.1249L40.2954 63.9549L14.7545 64V63.5178C14.7235 45.9428 34.342 45.5473 34.3144 29.8352C34.3075 25.5611 32.2046 22.0156 26.7062 22.0225C26.3063 22.0225 25.9237 22.0364 25.5445 22.0746C24.9964 22.1162 24.4724 22.1891 23.9725 22.2966C15.3267 24.0624 13.5824 34.1405 17.8812 39.1154C18.2156 39.5039 18.5879 39.8578 18.9946 40.1735C20.3563 41.2454 22.1248 41.8907 24.2862 41.8872V42.7337C22.0248 42.7372 20.1391 42.1266 18.6568 41.1032C18.2431 40.8222 17.857 40.5065 17.5089 40.1596C12.0622 34.8794 13.9478 23.1119 24.3655 21.2038C24.8654 21.1101 25.3894 21.0373 25.934 20.9991C26.396 20.954 26.8682 20.9367 27.3612 20.9332C34.959 20.9193 41.3089 25.7207 41.3227 33.7277C41.2882 49.8005 19.8151 48.392 16.4816 57.8491L37.2963 57.8109C38.5545 57.8075 39.9886 57.3252 40.585 56.1214L42.4948 56.1249Z" fill="black"/>
<path d="M10.0419 39.5663C10.0488 42.6366 12.4413 43.3547 13.6961 43.3513V43.9514L0 43.9792V43.379C1.25481 43.3755 3.64723 42.6505 3.64378 39.5802L3.58518 8.45447C3.58518 8.15265 3.46452 8.03469 3.40592 7.97225C3.40592 7.97225 3.34731 7.91327 3.16806 7.91327C2.9888 7.85429 2.74749 7.85429 2.38897 7.85429C1.97185 7.91674 1.60988 7.91674 1.19276 7.91674H0.413674V7.01474L8.65958 1.8248L9.97644 1.82133L10.0419 39.5663Z" fill="black"/>
<path d="M55.2565 23.1709H62.7819L72.1861 51.6461L81.6765 23.1709H89.195L96 64H88.5331L84.1827 38.2168L75.5644 64H68.7595L60.2171 38.2168L55.7632 64H48.2344L55.2565 23.1709Z" fill="black"/>
</g>
<defs>
<clipPath id="clip0_25_341">
<rect width="96" height="64" fill="white"/>
</clipPath>
</defs>
</svg>
