<svg width="386" height="39" viewBox="0 0 386 39" fill="none" xmlns="http://www.w3.org/2000/svg">
<path d="M4 23.7199V7.1199C4 4.4799 2.96 3.2399 1.76 3.2399C1.16 3.2399 0.56 3.5199 1.49012e-08 4.0799V3.6799C2.36 1.4399 5.88 2.4399 7.8 0.0799022L8 0.3999V23.7199C8 26.5199 9 27.9999 10.84 27.9999V28.3999H1.16V27.9999C3 27.9999 4 26.5199 4 23.7199ZM12.6516 29.3199L31.4116 0.4399H33.5316L14.7316 29.3199H12.6516ZM35.3125 28.3999L35.7525 24.7599C38.3125 16.2399 49.5925 14.9199 49.5925 6.8799C49.5925 3.1999 47.2325 0.639902 43.7525 0.639902C40.1925 0.639902 37.3525 3.3599 36.7125 7.3599H36.5125L36.3125 1.0799H36.5125C38.1925 0.319901 40.2325 -9.91821e-05 43.0725 -9.91821e-05C50.1125 -9.91821e-05 53.5525 1.9599 53.5525 5.9199C53.5525 13.8799 39.6325 16.1199 36.2325 24.3999H47.9525C51.5125 24.3999 53.1925 23.1999 53.6725 20.2399H53.9525L53.0325 28.3999H35.3125ZM79.4481 28.3999L69.5681 3.2399V23.7199C69.5681 26.5199 70.5681 27.9999 72.4081 27.9999V28.3999H66.3281V27.9999C68.1681 27.9999 69.1681 26.5199 69.1681 23.7199V5.0799C69.1681 2.2799 68.1681 0.7999 66.3281 0.7999V0.3999H72.7681L81.6081 22.9199L90.4481 0.3999H96.5281V0.7999C94.6881 0.7999 93.6881 2.2799 93.6881 5.0799V23.7199C93.6881 26.5199 94.6881 27.9999 96.5281 27.9999V28.3999H86.8481V27.9999C88.6881 27.9999 89.6881 26.5199 89.6881 23.7199V3.4399L81.8481 23.4799L83.7681 28.3999H79.4481ZM100.876 2.8799C100.876 1.5199 101.996 0.3999 103.356 0.3999C104.716 0.3999 105.836 1.5199 105.836 2.8799C105.836 4.1999 104.716 5.3199 103.356 5.3199C101.996 5.3199 100.876 4.1999 100.876 2.8799ZM101.356 23.7199V13.4799C101.356 12.1599 100.836 11.4399 100.036 11.4399C99.6356 11.4399 99.1156 11.6399 98.5556 12.0799V11.6799C100.836 9.9599 104.076 10.4399 105.156 8.0799L105.356 8.3999V23.7199C105.356 26.5199 106.356 27.9999 108.196 27.9999V28.3999H98.5156V27.9999C100.356 27.9999 101.356 26.5199 101.356 23.7199ZM113.035 23.7199V5.4799C113.035 4.1599 112.515 3.4399 111.715 3.4399C111.315 3.4399 110.795 3.6399 110.235 4.0799V3.6799C112.515 1.9599 115.755 2.4399 116.835 0.0799022L117.035 0.3999V23.7199C117.035 26.5199 118.035 27.9999 119.875 27.9999V28.3999H110.195V27.9999C112.035 27.9999 113.035 26.5199 113.035 23.7199ZM124.715 23.7199V5.4799C124.715 4.1599 124.195 3.4399 123.395 3.4399C122.995 3.4399 122.475 3.6399 121.915 4.0799V3.6799C124.195 1.9599 127.435 2.4399 128.515 0.0799022L128.715 0.3999V23.7199C128.715 26.5199 129.715 27.9999 131.555 27.9999V28.3999H121.875V27.9999C123.715 27.9999 124.715 26.5199 124.715 23.7199ZM135.915 2.8799C135.915 1.5199 137.035 0.3999 138.395 0.3999C139.755 0.3999 140.875 1.5199 140.875 2.8799C140.875 4.1999 139.755 5.3199 138.395 5.3199C137.035 5.3199 135.915 4.1999 135.915 2.8799ZM136.395 23.7199V13.4799C136.395 12.1599 135.875 11.4399 135.075 11.4399C134.675 11.4399 134.155 11.6399 133.595 12.0799V11.6799C135.875 9.9599 139.115 10.4399 140.195 8.0799L140.395 8.3999V23.7199C140.395 26.5199 141.395 27.9999 143.235 27.9999V28.3999H133.555V27.9999C135.395 27.9999 136.395 26.5199 136.395 23.7199ZM144.844 18.3999C144.844 12.6399 149.644 7.9999 155.564 7.9999C161.484 7.9999 166.284 12.6399 166.284 18.3999C166.284 24.1599 161.484 28.7999 155.564 28.7999C149.644 28.7999 144.844 24.1599 144.844 18.3999ZM149.044 17.1999C149.044 23.8799 153.164 28.1999 156.764 28.1999C160.364 28.1999 162.084 23.8799 162.084 19.5599C162.084 12.9199 157.964 8.5999 154.364 8.5999C150.724 8.5999 149.044 12.9599 149.044 17.1999ZM181.658 23.6399V13.8399C181.658 11.3599 180.218 9.6799 178.258 9.6799C176.658 9.6799 174.858 10.7999 172.738 13.2399V23.7199C172.738 26.5199 173.738 27.9999 175.578 27.9999V28.3999H165.898V27.9999C167.738 27.9999 168.738 26.5199 168.738 23.7199V13.4799C168.738 12.1599 168.218 11.4399 167.418 11.4399C167.018 11.4399 166.498 11.6399 165.938 12.0799V11.6799C168.218 9.9599 171.458 10.4399 172.538 8.0799L172.738 8.3999V12.5999C175.018 9.8399 178.178 7.9999 180.738 7.9999C183.538 7.9999 185.658 10.1999 185.658 13.4799V23.6399C185.658 26.4799 186.658 27.9999 188.498 27.9999V28.3999H178.818V27.9999C180.658 27.9999 181.658 26.4799 181.658 23.6399ZM189.727 26.9599C189.727 26.0799 190.327 25.5199 191.127 25.5199C192.047 25.5199 192.607 26.1999 192.607 27.1999C192.607 28.5199 191.647 29.9599 190.407 30.4399V30.2799C191.207 29.9599 191.807 29.1599 192.087 28.1199C191.807 28.3199 191.447 28.4399 191.087 28.4399C190.287 28.4399 189.727 27.8399 189.727 26.9599ZM209 23.7199V7.1199C209 4.4799 207.96 3.2399 206.76 3.2399C206.16 3.2399 205.56 3.5199 205 4.0799V3.6799C207.36 1.4399 210.88 2.4399 212.8 0.0799022L213 0.3999V23.7199C213 26.5199 214 27.9999 215.84 27.9999V28.3999H206.16V27.9999C208 27.9999 209 26.5199 209 23.7199ZM217.852 14.0799C217.852 6.1199 222.012 -9.91821e-05 228.732 -9.91821e-05C235.532 -9.91821e-05 240.372 6.2399 240.372 14.8799C240.372 22.9599 236.132 28.7999 229.492 28.7999C222.732 28.7999 217.852 22.6799 217.852 14.0799ZM222.052 12.3199C222.052 21.7999 226.172 28.1999 230.452 28.1999C234.172 28.1999 236.172 23.3599 236.172 16.7199C236.172 7.1199 232.012 0.5999 227.772 0.5999C223.892 0.5999 222.052 5.9599 222.052 12.3199ZM242.383 14.0799C242.383 6.1199 246.543 -9.91821e-05 253.263 -9.91821e-05C260.063 -9.91821e-05 264.903 6.2399 264.903 14.8799C264.903 22.9599 260.663 28.7999 254.023 28.7999C247.263 28.7999 242.383 22.6799 242.383 14.0799ZM246.583 12.3199C246.583 21.7999 250.703 28.1999 254.983 28.1999C258.703 28.1999 260.703 23.3599 260.703 16.7199C260.703 7.1199 256.543 0.5999 252.303 0.5999C248.423 0.5999 246.583 5.9599 246.583 12.3199ZM266.914 6.9999C266.914 3.0399 269.314 -9.91821e-05 273.274 -9.91821e-05C277.274 -9.91821e-05 280.074 3.0799 280.074 7.3199C280.074 11.3199 277.594 14.2399 273.674 14.2399C269.714 14.2399 266.914 11.2399 266.914 6.9999ZM269.354 6.1199C269.354 10.7599 271.794 13.9599 274.274 13.9599C276.394 13.9599 277.634 11.5599 277.634 8.2399C277.634 3.5599 275.154 0.319901 272.714 0.319901C270.474 0.319901 269.354 2.9599 269.354 6.1199ZM271.594 29.3199L290.354 0.4399H291.674L272.874 29.3199H271.594ZM284.514 21.1599C284.514 17.1999 286.914 14.1599 290.874 14.1599C294.874 14.1599 297.674 17.2399 297.674 21.4799C297.674 25.4799 295.194 28.3999 291.274 28.3999C287.314 28.3999 284.514 25.3999 284.514 21.1599ZM286.954 20.2799C286.954 24.9199 289.394 28.1199 291.874 28.1199C293.994 28.1199 295.234 25.7199 295.234 22.3999C295.234 17.7199 292.754 14.4799 290.314 14.4799C288.074 14.4799 286.954 17.1199 286.954 20.2799ZM304.408 16.7599C304.448 16.9199 304.488 17.0799 304.528 17.2399L310.768 9.6399C309.888 8.8799 308.888 8.4799 307.928 8.4799C307.688 8.4799 307.408 8.5199 307.168 8.5599C304.648 9.1999 303.328 12.5199 304.408 16.7599ZM311.048 9.9199L304.688 17.7199C305.768 20.9199 307.808 22.7599 309.848 22.7599C310.128 22.7599 310.368 22.7599 310.648 22.6799C313.168 22.0399 314.488 18.7199 313.448 14.4799C312.928 12.5199 312.088 10.9599 311.048 9.9199ZM300.368 15.6399C300.368 11.0799 304.208 7.9999 308.888 7.9999C309.888 7.9999 310.888 8.1599 311.768 8.3999C315.128 4.3599 316.608 2.8799 318.328 2.8799L318.368 6.9199C317.528 6.4799 316.768 6.1999 316.008 6.1999C314.848 6.1999 313.728 6.8399 312.208 8.5599C315.248 9.6399 317.448 12.1999 317.448 15.6399C317.448 20.1999 313.568 23.2799 308.888 23.2799C306.248 23.2799 303.888 22.3199 302.328 20.6399C301.368 21.9199 300.968 22.7599 300.968 23.3999C300.968 27.8399 318.328 22.5999 318.328 31.7599C318.328 35.9199 314.728 38.2799 307.848 38.2799C305.168 38.2799 302.488 37.9199 299.848 37.1999H299.688L299.928 30.9999L300.088 30.8799C301.728 35.1599 305.208 37.6399 309.888 37.6399C313.888 37.6399 316.848 35.7999 316.848 33.6399C316.848 28.3999 299.688 32.4799 299.688 24.8799C299.688 22.7599 301.008 21.3599 302.008 20.2799C300.968 19.0399 300.368 17.4399 300.368 15.6399ZM323.192 23.7199V5.4799C323.192 4.1599 322.672 3.4399 321.872 3.4399C321.472 3.4399 320.952 3.6399 320.392 4.0799V3.6799C322.672 1.9599 325.912 2.4399 326.992 0.0799022L327.192 0.3999V23.7199C327.192 26.5199 328.192 27.9999 330.032 27.9999V28.3999H320.352V27.9999C322.192 27.9999 323.192 26.5199 323.192 23.7199ZM331.25 18.3999C331.25 12.6399 336.05 7.9999 341.97 7.9999C347.89 7.9999 352.69 12.6399 352.69 18.3999C352.69 24.1599 347.89 28.7999 341.97 28.7999C336.05 28.7999 331.25 24.1599 331.25 18.3999ZM335.45 17.1999C335.45 23.8799 339.57 28.1999 343.17 28.1999C346.77 28.1999 348.49 23.8799 348.49 19.5599C348.49 12.9199 344.37 8.5999 340.77 8.5999C337.13 8.5999 335.45 12.9599 335.45 17.1999ZM361.724 28.3999L354.524 13.0799C352.844 9.5199 352.124 8.7999 351.284 8.7999V8.3999H361.444V8.7999C358.804 8.7999 357.844 10.5599 359.004 13.0799L363.924 23.7599L368.324 14.3599L367.724 13.0799C366.044 9.5199 365.324 8.7999 364.484 8.7999V8.3999H374.644V8.7999C372.004 8.7999 371.044 10.5599 372.204 13.0799L377.124 23.7599L382.124 13.0799C383.284 10.5599 382.324 8.7999 379.684 8.7999V8.3999H385.844V8.7999C385.004 8.7999 384.284 9.5199 382.604 13.0799L375.404 28.3999H374.924L368.564 14.8799L362.204 28.3999H361.724Z" fill="black"/>
</svg>
